<svg width="24" height="24" viewBox="0 0 24 24" fill="none" xmlns="http://www.w3.org/2000/svg">
<rect width="24" height="24" rx="12" fill="#CFC6B4"/>
<path fill-rule="evenodd" clip-rule="evenodd" d="M15.6021 9.6C15.6021 11.5882 13.9903 13.2 12.0021 13.2C10.0139 13.2 8.4021 11.5882 8.4021 9.6C8.4021 7.61177 10.0139 6 12.0021 6C13.9903 6 15.6021 7.61177 15.6021 9.6ZM14.4021 9.6C14.4021 10.9255 13.3276 12 12.0021 12C10.6766 12 9.6021 10.9255 9.6021 9.6C9.6021 8.27452 10.6766 7.2 12.0021 7.2C13.3276 7.2 14.4021 8.27452 14.4021 9.6Z" fill="#3D2F00"/>
<path d="M12.0021 15C8.11747 15 4.80766 17.297 3.54688 20.5152C3.85401 20.8202 4.17756 21.1087 4.51607 21.3792C5.45492 18.4246 8.40013 16.2 12.0021 16.2C15.6041 16.2 18.5493 18.4246 19.4881 21.3792C19.8266 21.1087 20.1502 20.8202 20.4573 20.5152C19.1965 17.2971 15.8867 15 12.0021 15Z" fill="#3D2F00"/>
</svg>
